<svg xmlns="http://www.w3.org/2000/svg" xmlns:xlink="http://www.w3.org/1999/xlink"><symbol viewBox="0 0 25 25" id="icon--10years" xmlns="http://www.w3.org/2000/svg"><defs><style>.cls-1{fill:#c08f73}.cls-2{isolation:isolate}.cls-3{fill:#fff}</style></defs><circle class="cls-1" cx="12.5" cy="12.5" r="12.5"/><g class="cls-2"><path class="cls-3" d="M6.76 9l-2.24 1.85L3.4 9.52l3.54-2.85h1.74V18H6.76z"/></g><g class="cls-2"><path class="cls-3" d="M19.38 12.34a11.11 11.11 0 01-.26 2.48 6.15 6.15 0 01-.77 1.87 3.61 3.61 0 01-1.25 1.18 3.4 3.4 0 01-1.7.42 3.51 3.51 0 01-1.72-.42 3.63 3.63 0 01-1.26-1.18 5.92 5.92 0 01-.78-1.87 11.11 11.11 0 01-.26-2.48 11 11 0 01.26-2.48A6 6 0 0112.42 8a3.63 3.63 0 011.26-1.2 3.51 3.51 0 011.72-.42 3.4 3.4 0 011.7.42A3.61 3.61 0 0118.35 8a6.22 6.22 0 01.77 1.88 11 11 0 01.26 2.46zm-2 0c0-.4 0-.85-.07-1.35a6.5 6.5 0 00-.29-1.42 3.14 3.14 0 00-.61-1.13 1.43 1.43 0 00-2.1 0 3.15 3.15 0 00-.62 1.13 7.15 7.15 0 00-.26 1.43c0 .5-.08.95-.08 1.35s0 .84.08 1.34a6.91 6.91 0 00.29 1.41 3.14 3.14 0 00.62 1.11 1.43 1.43 0 002.1 0 3.13 3.13 0 00.61-1.11 6.3 6.3 0 00.29-1.41c.05-.51.07-.96.07-1.35z"/></g></symbol><symbol viewBox="0 0 24 24" id="icon--chevron-arrow" xmlns="http://www.w3.org/2000/svg"><path d="M12 16a.49.49 0 01-.34-.14L4.17 8.93a.54.54 0 010-.75.5.5 0 01.73 0l7.1 6.57 7.14-6.61a.5.5 0 01.73 0 .54.54 0 010 .75l-7.49 6.93A.49.49 0 0112 16z"/></symbol><symbol viewBox="0 0 48 48" id="icon--heart" xmlns="http://www.w3.org/2000/svg"><path class="cls-1" d="M36.1 5.53A11.65 11.65 0 0024 14.34a11.78 11.78 0 00-3.34-5.68A11.68 11.68 0 001 16.5C.71 21.7 3.89 27 10.74 32.84a104.5 104.5 0 0013.08 9.61.41.41 0 00.19 0 .37.37 0 00.18 0c2.1-1.28 4.22-2.71 6.38-4.3s4.4-3.36 6.7-5.31C44.12 27 47.29 21.67 47 16.48A11.69 11.69 0 0036.1 5.53z"/></symbol><symbol viewBox="0 0 25 25" id="icon--pp-10yrwarranty" xmlns="http://www.w3.org/2000/svg"><g fill="none" fill-rule="evenodd"><circle fill="#C08F73" cx="12.5" cy="12.5" r="12.5"/><text font-family="AvenirNext-Heavy, Avenir Next" font-size="16" font-weight="600" letter-spacing="-3" fill="#FFF"><tspan x="2.3" y="18">1</tspan> <tspan x="10.5" y="18">0</tspan></text></g></symbol><symbol viewBox="0 0 25 25" id="icon--pp-1yrwarranty" xmlns="http://www.w3.org/2000/svg"><g fill="none" fill-rule="evenodd"><circle fill="#C08F73" cx="12.5" cy="12.5" r="12.5"/><text font-family="AvenirNext-Heavy, Avenir Next" font-size="16" font-weight="600" fill="#FFF"><tspan x="7.4" y="19">1</tspan></text></g></symbol><symbol viewBox="0 0 25 25" id="icon--pp-2yrwarranty" xmlns="http://www.w3.org/2000/svg"><g fill="none" fill-rule="evenodd"><circle fill="#C08F73" cx="12.5" cy="12.5" r="12.5"/><text font-family="AvenirNext-Heavy, Avenir Next" font-size="16" font-weight="600" fill="#FFF"><tspan x="7.4" y="19">2</tspan></text></g></symbol><symbol viewBox="0 0 25 25" id="icon--pp-3yrwarranty" xmlns="http://www.w3.org/2000/svg"><g fill="none" fill-rule="evenodd"><circle fill="#C08F73" cx="12.5" cy="12.5" r="12.5"/><text font-family="AvenirNext-Heavy, Avenir Next" font-size="16" font-weight="600" fill="#FFF"><tspan x="7.4" y="19">3</tspan></text></g></symbol><symbol viewBox="0 0 25 25" id="icon--pp-5yrwarranty" xmlns="http://www.w3.org/2000/svg"><g fill="none" fill-rule="evenodd"><circle fill="#C08F73" cx="12.5" cy="12.5" r="12.5"/><text font-family="AvenirNext-Heavy, Avenir Next" font-size="16" font-weight="600" fill="#FFF"><tspan x="7.4" y="19">5</tspan></text></g></symbol><symbol viewBox="0 0 25 25" id="icon--pp-7yrwarranty" xmlns="http://www.w3.org/2000/svg"><g fill="none" fill-rule="evenodd"><circle fill="#C08F73" cx="12.5" cy="12.5" r="12.5"/><text font-family="AvenirNext-Heavy, Avenir Next" font-size="16" font-weight="600" fill="#FFF"><tspan x="7.4" y="19">7</tspan></text></g></symbol><symbol viewBox="0 0 25 25" id="icon--pp-8yrwarranty" xmlns="http://www.w3.org/2000/svg"><g fill="none" fill-rule="evenodd"><circle fill="#C08F73" cx="12.5" cy="12.5" r="12.5"/><text font-family="AvenirNext-Heavy, Avenir Next" font-size="16" font-weight="600" fill="#FFF"><tspan x="7.4" y="19">8</tspan></text></g></symbol><symbol viewBox="0 0 25 25" id="icon--pp-commercial" xmlns="http://www.w3.org/2000/svg"><g fill="none" fill-rule="evenodd"><circle fill="#C08F73" cx="12.5" cy="12.5" r="12.5"/><text font-family="AvenirNext-Heavy, Avenir Next" font-size="16" font-weight="600" fill="#FFF"><tspan x="7.432" y="18">C</tspan></text></g></symbol><symbol viewBox="0 0 25 25" id="icon--pp-england" xmlns="http://www.w3.org/2000/svg"><path d="M24.858 13.9c.01-.095.021-.189.029-.284l.018-.188c.023-.309.037-.618.037-.928 0-.313-.015-.625-.038-.936l-.02-.205c-.008-.095-.02-.188-.03-.282-.017-.146-.034-.29-.056-.435-.005-.037-.007-.075-.012-.113l-.057-.348h-.01c-.007-.033-.011-.065-.017-.097-.008-.036-.011-.073-.02-.11-.059-.288-.128-.575-.208-.86l.006-.002-.164-.526h-.003a12.447 12.447 0 00-.294-.783l.01-.004-.161-.36c-.029-.065-.065-.125-.095-.189a13.084 13.084 0 00-.305-.612l-.08-.145c-.03-.056-.056-.117-.087-.173l-.197-.342-.008.004c-.072-.116-.15-.228-.227-.343l-.099-.15c-.055-.08-.104-.162-.16-.24l-.205-.286-.022.01A12.467 12.467 0 0016.413.7V.683l-.292-.089a12.025 12.025 0 00-1.023-.258c-.093-.02-.185-.034-.279-.052V.27L14.47.215l-.082-.01C14.258.185 14.13.174 14 .16c-.12-.015-.239-.031-.36-.042-.07-.006-.14-.016-.21-.02-.127-.01-.253-.01-.38-.015-.159-.007-.318-.018-.476-.02L12.5.06c-.016 0-.033.003-.05.003-.172 0-.343.012-.515.02-.123.005-.247.005-.37.014-.07.006-.141.015-.212.021-.117.01-.233.027-.35.041-.13.016-.262.028-.393.047l-.08.01-.35.056v.013c-.092.017-.184.032-.275.052-.345.073-.688.156-1.026.258l-.293.09v.015a12.47 12.47 0 00-5.974 4.282L2.59 4.97l-.206.286c-.057.08-.107.164-.162.245l-.083.125c-.11.167-.222.333-.324.505l-.009-.005-.19.345c-.048.085-.091.174-.137.26-.036.068-.072.135-.106.203-.11.22-.215.44-.31.663l-.045.104-.005.012-.106.246.012.006c-.08.206-.163.41-.233.621l-.05.154-.013.043-.106.337.006.003a12.3 12.3 0 00-.207.857l-.015.08-.02.12H.27l-.056.35c-.006.039-.008.079-.014.118-.022.145-.038.29-.055.434l-.029.27c-.006.072-.016.144-.02.216-.024.31-.038.62-.038.932 0 .31.014.618.036.926l.019.195c.008.094.02.186.03.28.016.145.033.29.054.435.007.044.01.09.016.134l.056.35h.01c.01.058.018.117.03.175.057.278.123.554.198.828l-.005.002.08.256c.009.033.02.066.03.098l.002.01.069.225h.004c.063.191.139.378.21.565.029.074.05.148.08.22l-.006.003.16.36c.028.06.062.117.09.178.074.157.146.316.226.47.061.117.125.232.19.348.022.04.04.082.062.122l.196.342.01-.005c.031.051.067.1.099.152.081.127.162.253.248.377.034.05.064.102.098.151l.205.288.016-.008c.348.46.717.906 1.131 1.32a12.37 12.37 0 004.884 3.007v.014l.242.073c.075.022.15.04.225.061.285.082.572.154.862.216l.266.053v.01l.349.055.066.008c.15.022.302.037.452.055.11.013.22.027.33.037.055.005.109.013.164.017a12.37 12.37 0 001.917 0c.055-.004.11-.012.164-.017.113-.01.222-.025.334-.038.15-.017.3-.032.447-.054.022-.004.045-.005.067-.008l.349-.055v-.01c.091-.017.181-.036.272-.055.276-.059.549-.127.82-.205.09-.025.182-.046.272-.074l.23-.07v-.013a12.37 12.37 0 004.884-3.006c.416-.416.785-.863 1.133-1.324l.017.008.205-.288c.034-.05.064-.1.098-.15.086-.124.166-.25.247-.377.063-.099.129-.196.19-.297l.006.004.191-.344.033-.064c.048-.086.093-.174.138-.261.026-.05.054-.101.079-.153.107-.215.21-.43.303-.649l.026-.058.055-.133.075-.17-.01-.006c.01-.028.019-.057.03-.085.068-.178.14-.355.2-.538l.056-.18.06-.189.069-.223-.005-.002c.075-.273.14-.548.198-.825l.03-.174h.008l.056-.35c.007-.041.01-.084.015-.125.022-.149.04-.297.057-.445zm-2.682 5.023l-6.591-3.264v8.03a12.298 12.298 0 01-.766.191v-9.06h.097l7.516 3.68c-.065.107-.124.216-.193.321-.021.033-.04.069-.063.102zM9.414 23.69v-8.03l-6.589 3.267c-.022-.034-.042-.07-.065-.104-.039-.06-.072-.123-.11-.184l7.53-3.817v9.059h-.003c-.258-.052-.51-.122-.763-.19zm-7.9-7.442l1.333-.661H1.31c-.07-.254-.139-.508-.19-.766h4.549L1.72 16.82l-.014-.037c-.07-.176-.13-.357-.192-.537zm21.973-.005c-.05.143-.098.286-.153.427l-3.777-1.849h4.324c-.052.259-.122.512-.191.766h-1.517l1.314.656zm.577-2.73a6.618 6.618 0 01-.03.29c-.006.064-.019.126-.027.19h-8.025l7.024 3.44c-.055.115-.106.232-.165.347l-7.733-3.787h-1.117v10.015c-.053.006-.105.017-.159.023a11.626 11.626 0 01-2.66 0c-.054-.005-.109-.017-.163-.023V13.992H9.984l-7.75 3.93-.066-.123c-.037-.073-.07-.148-.105-.223l7.07-3.584H.994c-.008-.064-.021-.126-.028-.19l-.029-.284c-.029-.337-.05-.676-.05-1.018a11.516 11.516 0 01.08-1.307c.006-.062.02-.123.027-.184h8.024L2 7.572c.054-.116.109-.233.167-.346l7.725 3.783h1.117V.994c.052-.007.103-.018.155-.024A11.96 11.96 0 0112.39.893h.227a11.405 11.405 0 011.222.078c.051.005.102.016.152.023v10.015h1.025l7.747-3.929c.06.113.11.231.167.347l-7.064 3.582h8.14c.008.061.02.12.029.182l.016.163a11.462 11.462 0 01.063 1.146c0 .34-.021.676-.05 1.011zM9.414 1.315c.244-.067.487-.138.737-.19a.99.99 0 00.029-.005v9.06h-.097L2.574 6.503c.096-.158.185-.321.289-.474l6.55 3.245V1.316zm5.45-.186c.244.051.482.12.721.186V9.27l6.548-3.247c.075.111.138.23.209.343l-7.523 3.815V1.12l.013.002.032.008zm8.82 8.284c.07.254.143.507.195.767h-4.548l3.941-1.999c.068.168.127.34.187.512l-1.452.72h1.677zM1.538 8.702c.043-.124.088-.246.135-.368l3.77 1.847H1.12c.053-.26.126-.513.196-.767h1.66l-1.438-.712zM21.63 5.348l-5.216 2.586V1.58a11.644 11.644 0 015.216 3.768zM8.585 1.58V7.94l-5.22-2.586a11.641 11.641 0 015.22-3.773zM4.287 20.71c-.35-.35-.664-.723-.963-1.107l5.261-2.61v6.43a11.56 11.56 0 01-4.298-2.712zm16.425 0a11.556 11.556 0 01-4.299 2.714v-6.432l5.264 2.608c-.298.385-.614.76-.965 1.11z" fill-rule="nonzero" fill="#C08F73"/></symbol><symbol viewBox="0 0 25 25" id="icon--pp-france" xmlns="http://www.w3.org/2000/svg"><path d="M12.5.013C5.616.013.014 5.614.013 12.5c0 3.336 1.3 6.472 3.658 8.83a12.407 12.407 0 008.83 3.657c3.337 0 6.472-1.298 8.83-3.656a12.406 12.406 0 003.658-8.831C24.988 5.614 19.387.013 12.5.013zM.845 12.5c0-4.874 3.01-9.053 7.267-10.791V23.3a11.629 11.629 0 01-3.853-2.558A11.579 11.579 0 01.844 12.5zM8.94 23.598V1.404a11.602 11.602 0 017.114-.002V23.6c-1.135.362-2.329.557-3.554.557-1.227 0-2.423-.196-3.56-.559zm11.802-2.855a11.645 11.645 0 01-3.857 2.56V1.707c4.26 1.737 7.271 5.917 7.271 10.793 0 3.114-1.213 6.04-3.414 8.243z" fill-rule="nonzero" fill="#C08F73"/></symbol><symbol viewBox="0 0 25 25" id="icon--pp-free2daydelivery" xmlns="http://www.w3.org/2000/svg"><g fill="none" fill-rule="evenodd"><circle fill="#C08F73" cx="12.5" cy="12.5" r="12.5"/><path d="M15.65 7.633c.385-.431.642-.944.717-1.468.091-.638-.09-1.236-.498-1.644-.336-.336-.805-.521-1.32-.521-.681 0-1.385.313-1.93.86-.058.056-.102.119-.153.179-.025-.026-.043-.055-.068-.08-.529-.528-1.21-.831-1.87-.831-.5 0-.955.18-1.282.507-.753.753-.653 2.036.193 2.998H5V19h15V7.633h-4.35zm3.1 4.492h-5.625V8.883h5.625v3.242zm-5.248-6.382c.309-.309.7-.493 1.047-.493.128 0 .307.027.436.155.173.173.165.44.144.584-.043.31-.22.637-.482.9-.309.308-.7.493-1.046.493a.62.62 0 01-.421-.144c.068-.317.06-.656-.03-.997.08-.17.193-.34.352-.498zm-3.373-.224c.117-.117.282-.141.4-.141.325 0 .693.173.984.465.135.134.236.277.31.42a2.167 2.167 0 00-.01.976.576.576 0 01-.375.128c-.325 0-.693-.174-.984-.465-.504-.503-.575-1.133-.325-1.383zm1.746 3.364v3.242H6.25V8.883h5.625zM6.25 13.375h5.625v4.375H6.25v-4.375zm6.875 4.375v-4.375h5.625v4.375h-5.625z" fill="#FFF" fill-rule="nonzero"/></g></symbol><symbol viewBox="0 0 25 25" id="icon--pp-germany" xmlns="http://www.w3.org/2000/svg"><defs><style>.cls-1{fill:#c08f73}</style></defs><g id="Page-1"><g id="germany-Solingen-Copy-2"><path id="Shape" class="cls-1" d="M25 12.5A12.49 12.49 0 1012.5 25 12.5 12.5 0 0025 12.5zM12.5.84a11.67 11.67 0 0110.79 7.27H1.7A11.69 11.69 0 0112.5.84zM1.4 8.94h22.2a11.6 11.6 0 010 7.12H1.4a11.6 11.6 0 010-7.12zm2.86 11.8a11.69 11.69 0 01-2.56-3.85h21.59a11.64 11.64 0 01-19 3.85z"/></g></g></symbol><symbol viewBox="0 0 25 25" id="icon--pp-italy" xmlns="http://www.w3.org/2000/svg"><path d="M12.5.013C5.616.013.014 5.614.013 12.5c0 3.336 1.3 6.472 3.658 8.83a12.407 12.407 0 008.83 3.657c3.337 0 6.472-1.298 8.83-3.656a12.406 12.406 0 003.658-8.831C24.988 5.614 19.387.013 12.5.013zM.845 12.5c0-4.874 3.01-9.053 7.267-10.791V23.3a11.629 11.629 0 01-3.853-2.558A11.579 11.579 0 01.844 12.5zM8.94 23.598V1.404a11.602 11.602 0 017.114-.002V23.6c-1.135.362-2.329.557-3.554.557-1.227 0-2.423-.196-3.56-.559zm11.802-2.855a11.645 11.645 0 01-3.857 2.56V1.707c4.26 1.737 7.271 5.917 7.271 10.793 0 3.114-1.213 6.04-3.414 8.243z" fill-rule="nonzero" fill="#C08F73"/></symbol><symbol viewBox="0 0 25 25" id="icon--pp-japan" xmlns="http://www.w3.org/2000/svg"><g fill-rule="nonzero" fill="#C08F73"><path d="M12.5.058C5.64.058.06 5.64.059 12.5a12.36 12.36 0 003.645 8.798 12.358 12.358 0 008.798 3.645c3.323 0 6.447-1.294 8.797-3.645a12.359 12.359 0 003.643-8.798c0-6.86-5.58-12.44-12.44-12.44zm8.212 20.654a11.537 11.537 0 01-8.211 3.401c-3.103 0-6.02-1.207-8.213-3.401a11.537 11.537 0 01-3.401-8.213C.887 6.096 6.097.887 12.5.887c6.402 0 11.613 5.21 11.613 11.612 0 3.103-1.209 6.02-3.402 8.213z"/><path d="M12.5 7.828a4.677 4.677 0 00-4.671 4.671c0 1.248.486 2.421 1.368 3.304a4.644 4.644 0 003.304 1.369c1.247 0 2.42-.486 3.303-1.369a4.643 4.643 0 001.368-3.304 4.678 4.678 0 00-4.671-4.671zm2.718 7.39a3.819 3.819 0 01-2.717 1.125 3.82 3.82 0 01-2.719-1.126A3.82 3.82 0 018.656 12.5 3.848 3.848 0 0112.5 8.656a3.847 3.847 0 013.843 3.843c0 1.027-.4 1.993-1.125 2.718z"/></g></symbol><symbol viewBox="0 0 25 25" id="icon--pp-lifetimewarranty" xmlns="http://www.w3.org/2000/svg"><defs><style>.cls-1{fill:#c08f73}.cls-2{fill:#fff}</style></defs><g id="Page-1"><g id="lifetime-copy"><circle id="Oval-3" class="cls-1" cx="12.5" cy="12.5" r="12.5"/><path id="Shape" class="cls-2" d="M17.27 8h-.1a4.58 4.58 0 00-3.58 1.67 10.06 10.06 0 00-.59.86 10.06 10.06 0 00-.59-.86A4.58 4.58 0 008.83 8h-.1A4.62 4.62 0 004 12.5 4.62 4.62 0 008.73 17h.1a4.58 4.58 0 003.58-1.67 10.06 10.06 0 00.59-.86 10.06 10.06 0 00.59.86A4.58 4.58 0 0017.17 17h.1A4.62 4.62 0 0022 12.5 4.62 4.62 0 0017.27 8zm-5.45 4.56a12.92 12.92 0 01-1 1.57 2.59 2.59 0 01-.63.56l-.17.07a2.79 2.79 0 01-3.39-.62 2.47 2.47 0 010-3.28 2.79 2.79 0 013.37-.62l.17.07a2.59 2.59 0 01.63.56 12.92 12.92 0 011 1.57v.06zm5.45 2.52a2.81 2.81 0 01-1.3-.32l-.17-.07a2.59 2.59 0 01-.63-.56 12.92 12.92 0 01-1-1.57v-.12a12.92 12.92 0 011-1.57 2.59 2.59 0 01.63-.56l.17-.07a2.81 2.81 0 013.08.31 2.49 2.49 0 01.76 2.85 2.71 2.71 0 01-2.54 1.68z"/></g></g></symbol><symbol viewBox="0 0 25 25" id="icon--pp-plus5" xmlns="http://www.w3.org/2000/svg"><defs><style>.cls-1{fill:#c08f73}.cls-2{isolation:isolate}.cls-3{fill:#fff}</style></defs><circle class="cls-1" cx="12.5" cy="12.5" r="12.5" id="Oval-3-Copy"/><g id="_5" data-name="5" class="cls-2"><g class="cls-2"><path class="cls-3" d="M13.11 6.6a6.5 6.5 0 011.77.3 4.51 4.51 0 011.56.84l-1.3 1.34a2.43 2.43 0 00-.92-.63 3.12 3.12 0 00-1.11-.21v3.23c.4.13.81.28 1.21.45a4.41 4.41 0 011.1.64 3.06 3.06 0 01.79 1 2.86 2.86 0 01.31 1.37 3.74 3.74 0 01-.28 1.47 3 3 0 01-.76 1.05 3.28 3.28 0 01-1.08.65 4 4 0 01-1.29.24v1.15h-.87V18.3a6.3 6.3 0 01-2-.39 5.08 5.08 0 01-1.74-1.1l1.41-1.34a3.42 3.42 0 001.09.84 3 3 0 001.26.34V13.1a11.17 11.17 0 01-1.31-.44A4 4 0 019.87 12a2.65 2.65 0 01-.71-.92A3 3 0 018.9 9.8a2.77 2.77 0 01.28-1.28 3 3 0 01.75-1 3.6 3.6 0 011.07-.6 4.13 4.13 0 011.24-.28V5.55h.87zm-.87 1.64a1.9 1.9 0 00-1 .41 1.29 1.29 0 00-.43 1.06 1.23 1.23 0 00.41 1 2.62 2.62 0 001 .52zm.87 8.41a1.48 1.48 0 001.08-.48A1.69 1.69 0 0014.6 15a1.33 1.33 0 00-.43-1.06 3.35 3.35 0 00-1.06-.58z"/></g></g></symbol><symbol viewBox="0 0 25 25" id="icon--pp-residential" xmlns="http://www.w3.org/2000/svg"><g fill="none" fill-rule="evenodd"><circle fill="#C08F73" cx="12.5" cy="12.5" r="12.5"/><text font-family="AvenirNext-Heavy, Avenir Next" font-size="16" font-weight="600" fill="#FFF"><tspan x="7.288" y="18">R</tspan></text></g></symbol><symbol viewBox="0 0 25 25" id="icon--pp-solingen" xmlns="http://www.w3.org/2000/svg"><path d="M24.987 12.5C24.987 5.616 19.386.014 12.5.013c-3.336 0-6.472 1.3-8.83 3.658A12.407 12.407 0 00.012 12.5c0 3.337 1.298 6.472 3.656 8.83a12.406 12.406 0 008.831 3.658c6.886 0 12.487-5.601 12.487-12.487zM12.5.845c4.874 0 9.053 3.01 10.791 7.267H1.7a11.629 11.629 0 012.558-3.853A11.579 11.579 0 0112.5.844zM1.402 8.94h22.194a11.602 11.602 0 01.002 7.114H1.4a11.676 11.676 0 01-.557-3.554c0-1.227.196-2.423.559-3.56zm2.855 11.802a11.645 11.645 0 01-2.56-3.857h21.596c-1.737 4.26-5.917 7.271-10.793 7.271-3.114 0-6.04-1.213-8.243-3.414z" fill-rule="nonzero" fill="#C08F73"/></symbol><symbol viewBox="0 0 25 25" id="icon--pp-southkorea" xmlns="http://www.w3.org/2000/svg"><g fill-rule="nonzero" fill="#C08F73"><path d="M12.5.024C5.621.024.024 5.62.023 12.5c0 3.333 1.298 6.466 3.655 8.823a12.399 12.399 0 008.822 3.653c3.333 0 6.466-1.298 8.823-3.653a12.396 12.396 0 003.653-8.822C24.976 5.62 19.38.024 12.5.024zm8.235 20.711a11.571 11.571 0 01-8.235 3.41c-3.111 0-6.036-1.21-8.235-3.41-2.2-2.2-3.411-5.124-3.411-8.235C.854 6.08 6.079.855 12.5.855c6.421 0 11.646 5.224 11.646 11.645 0 3.111-1.212 6.036-3.41 8.235z"/><path d="M17.25 12.084a4.743 4.743 0 00-4.738-4.737 4.743 4.743 0 00-4.737 4.737 4.743 4.743 0 004.737 4.738 4.743 4.743 0 004.737-4.738zm-4.738-3.906a3.91 3.91 0 013.892 3.623c-2.146-1.558-3.232-.677-4.117.052-.901.741-1.615 1.326-3.62-.435a3.91 3.91 0 013.845-3.24zm0 7.813a3.912 3.912 0 01-3.888-3.537c.917.7 1.645.956 2.244.956.835 0 1.426-.486 1.947-.916.889-.732 1.6-1.308 3.533.315a3.91 3.91 0 01-3.836 3.182zM5.402 5.272l.866.5-2.14 3.705-.867-.5zM8.652 7.149l-2.144 3.703-.865-.5 2.143-3.704zM7.387 6.418l-2.144 3.703-.865-.5L6.52 5.916zM17.088 6.894l.91 1.396-.838.546-.91-1.396zM18.308 6.091l2.341 3.581-.837.547-2.341-3.58zM18.518 9.075l.91 1.397-.838.546-.91-1.398zM8.441 18.013l-2.346-3.579.836-.548 2.347 3.578zM6 19.615l-2.347-3.578.836-.548 2.347 3.577zM6.568 16.312l-.837.547-1-1.53.838-.547zM7.22 18.815l-1-1.53.837-.548 1 1.53zM17.08 18.332l.98-1.543.844.537-.98 1.543zM19.368 14.718l.845.536-.98 1.544-.844-.536zM15.849 17.554l.98-1.541.844.536-.98 1.542zM18.837 14.385l-.98 1.543-.844-.537.98-1.543zM19.012 19.555l-.844-.536.98-1.543.844.536zM20.32 17.487l-.844-.536.98-1.542.844.535zM19.546 5.28l.91 1.398-.837.546-.91-1.397zM21.887 8.86l-.838.545-.91-1.397.838-.545z"/></g></symbol><symbol viewBox="0 0 25 25" id="icon--pp-spain" xmlns="http://www.w3.org/2000/svg"><g fill="none" fill-rule="evenodd"><path d="M24.987 12.5C24.987 5.616 19.386.014 12.5.013c-3.336 0-6.472 1.3-8.83 3.658A12.407 12.407 0 00.012 12.5c0 3.337 1.298 6.472 3.656 8.83a12.406 12.406 0 008.831 3.658c6.886 0 12.487-5.601 12.487-12.487zM12.5.845c4.874 0 9.053 3.01 10.791 7.267H1.7a11.629 11.629 0 012.558-3.853A11.579 11.579 0 0112.5.844zM1.402 8.94h22.194a11.602 11.602 0 01.002 7.114H1.4a11.676 11.676 0 01-.557-3.554c0-1.227.196-2.423.559-3.56zm2.855 11.802a11.645 11.645 0 01-2.56-3.857h21.596c-1.737 4.26-5.917 7.271-10.793 7.271-3.114 0-6.04-1.213-8.243-3.414z" fill="#C08F73" fill-rule="nonzero"/><path fill="#CBA28B" d="M7.5 10l2.378 1.727-.909 2.796H6.031l-.909-2.796z"/></g></symbol><symbol viewBox="0 0 25 25" id="icon--pp-swiss" xmlns="http://www.w3.org/2000/svg"><g fill-rule="nonzero" fill="#C08F73"><path d="M12.5.058C5.64.058.058 5.64.058 12.5c0 3.322 1.294 6.448 3.644 8.798A12.365 12.365 0 0012.5 24.94c3.324 0 6.448-1.294 8.798-3.643a12.364 12.364 0 003.644-8.797C24.942 5.64 19.36.058 12.5.058zm8.212 20.654a11.539 11.539 0 01-8.212 3.4 11.542 11.542 0 01-8.213-3.4 11.54 11.54 0 01-3.4-8.212C.887 6.096 6.097.887 12.5.887c6.404 0 11.613 5.21 11.613 11.614 0 3.101-1.207 6.018-3.4 8.211z"/><path d="M15.396 9.604V3.28H9.604v6.325H3.28v5.792h6.325v6.325h5.792v-6.325h6.325V9.604h-6.325zm5.497 4.963h-6.326v6.325h-4.134v-6.325H4.107v-4.134h6.326V4.108h4.134v6.325h6.325v4.134z"/></g></symbol><symbol viewBox="0 0 25 25" id="icon--pp-usa" xmlns="http://www.w3.org/2000/svg"><defs><style>.cls-1{fill:#c08f73}</style></defs><g id="Page-1"><g id="usa-copy"><g id="Group"><path id="Shape" class="cls-1" d="M17.73 1.19l-.25-.11L17.4 1c-.17-.08-.35-.13-.52-.2s-.43-.17-.65-.24l-.46-.09c-.25-.07-.5-.14-.77-.19l-.3-.05c-.31-.05-.61-.11-.93-.14S12.93 0 12.5 0A12.5 12.5 0 000 12.5v.89A12.46 12.46 0 0012.5 25a12.47 12.47 0 005.23-23.81zm6.41 11.37h-6.41v-3.3h5.95a11.59 11.59 0 01.47 3.24s-.01.04-.01.06zm-.74-4.13h-5.67V5.14h3.79a11.67 11.67 0 011.88 3.29zm-2.63-4.12h-3v-2.2a11.64 11.64 0 013 2.2zM1.58 8.48l.3-.21.47.34-.18-.55.46-.34h-.57L2 7.52a11.68 11.68 0 017.15-6.17l.12.09L9.1 2l.46-.34L10 2l-.18-.55.47-.34h-.19a11.55 11.55 0 012.4-.26h.11l-.08.24H12l.47.34-.23.57.47-.34.47.34-.18-.56.46-.34h-.57l-.08-.23h1.13c.3 0 .59.08.87.14h.22l.41.3-.18.69.47-.34.46.34-.19-.56.18.07c.22.07.45.15.67.24v10.81H.86v-.06a11.7 11.7 0 01.72-4.02zm16.15 4.91h6.37a11.34 11.34 0 01-.73 3.27H1.63a11.34 11.34 0 01-.73-3.27zM5.1 21.49h14.8a11.62 11.62 0 01-14.8 0zm15.7-.83H4.2A11.46 11.46 0 012 17.49h21a11.46 11.46 0 01-2.2 3.17z"/><path id="Shape-2" data-name="Shape" class="cls-1" d="M7.53 3.41L8 3.07l.46.34-.18-.54.47-.34h-.57L8 1.98l-.18.55h-.58l.47.34-.18.54z"/><path id="Shape-3" data-name="Shape" class="cls-1" d="M10.68 3.41l.46-.34.47.34-.18-.54.47-.34h-.58l-.18-.55-.17.55h-.58l.47.34-.18.54z"/><path id="Shape-4" data-name="Shape" class="cls-1" d="M13.7 3.41l.46-.34.47.34-.18-.54.47-.34h-.58l-.18-.55-.17.55h-.58l.47.34-.18.54z"/><path id="Shape-5" data-name="Shape" class="cls-1" d="M5.99 4.44l.47-.34.47.34-.18-.55.46-.34h-.57L6.46 3l-.18.55h-.57l.46.34-.18.55z"/><path id="Shape-6" data-name="Shape" class="cls-1" d="M9.1 4.44l.46-.34.47.34-.18-.55.47-.34h-.58L9.56 3l-.18.55h-.57l.47.34-.18.55z"/><path id="Shape-7" data-name="Shape" class="cls-1" d="M12.24 4.44l.47-.34.47.34-.18-.55.46-.34h-.57L12.71 3l-.18.55h-.57l.46.34-.18.55z"/><path id="Shape-8" data-name="Shape" class="cls-1" d="M15.26 4.44l.47-.34.46.34-.18-.55.47-.34h-.58L15.73 3l-.18.55h-.58l.47.34-.18.55z"/><path id="Shape-9" data-name="Shape" class="cls-1" d="M4.43 5.87l.47-.34.46.34-.18-.55.47-.34h-.58l-.17-.55-.18.55h-.58l.47.34-.18.55z"/><path id="Shape-10" data-name="Shape" class="cls-1" d="M7.53 5.87L8 5.53l.46.34-.18-.55.47-.34h-.57L8 4.43l-.18.55h-.58l.47.34-.18.55z"/><path id="Shape-11" data-name="Shape" class="cls-1" d="M10.68 5.87l.46-.34.47.34-.18-.55.47-.34h-.58l-.18-.55-.17.55h-.58l.47.34-.18.55z"/><path id="Shape-12" data-name="Shape" class="cls-1" d="M14.16 4.43l-.17.55h-.58l.47.34-.18.55.46-.34.47.34-.18-.55.47-.34h-.58l-.18-.55z"/><path id="Shape-13" data-name="Shape" class="cls-1" d="M2.98 7.18l.46-.34.47.34-.18-.55.47-.34h-.58l-.18-.54-.17.54h-.58l.47.34-.18.55z"/><path id="Shape-14" data-name="Shape" class="cls-1" d="M5.99 7.18l.47-.34.47.34-.18-.55.46-.34h-.57l-.18-.54-.18.54h-.57l.46.34-.18.55z"/><path id="Shape-15" data-name="Shape" class="cls-1" d="M9.1 7.18l.46-.34.47.34-.18-.55.47-.34h-.58l-.18-.54-.18.54h-.57l.47.34-.18.55z"/><path id="Shape-16" data-name="Shape" class="cls-1" d="M12.24 7.18l.47-.34.47.34-.18-.55.46-.34h-.57l-.18-.54-.18.54h-.57l.46.34-.18.55z"/><path id="Shape-17" data-name="Shape" class="cls-1" d="M15.26 7.18l.47-.34.46.34-.18-.55.47-.34h-.58l-.17-.54-.18.54h-.58l.47.34-.18.55z"/><path id="Shape-18" data-name="Shape" class="cls-1" d="M4.9 7.17l-.18.55h-.58l.47.34-.18.55.47-.34.46.34-.18-.55.47-.34h-.58l-.17-.55z"/><path id="Shape-19" data-name="Shape" class="cls-1" d="M7.53 8.61L8 8.27l.46.34-.18-.55.47-.34h-.57L8 7.17l-.18.55h-.58l.47.34-.18.55z"/><path id="Shape-20" data-name="Shape" class="cls-1" d="M10.68 8.61l.46-.34.47.34-.18-.55.47-.34h-.58l-.18-.55-.17.55h-.58l.47.34-.18.55z"/><path id="Shape-21" data-name="Shape" class="cls-1" d="M14.16 7.17l-.17.55h-.58l.47.34-.18.55.46-.34.47.34-.18-.55.47-.34h-.58l-.18-.55z"/><path id="Shape-22" data-name="Shape" class="cls-1" d="M2.98 9.73l.46-.34.47.34-.18-.55.47-.34-.58.01-.18-.55-.17.55-.58-.01.47.34-.18.55z"/><path id="Shape-23" data-name="Shape" class="cls-1" d="M5.99 9.73l.47-.34.47.34-.18-.55.46-.34-.57.01-.18-.55-.18.55-.57-.01.46.34-.18.55z"/><path id="Shape-24" data-name="Shape" class="cls-1" d="M9.1 9.73l.46-.34.47.34-.18-.55.47-.34-.58.01-.18-.55-.18.55-.57-.01.47.34-.18.55z"/><path id="Shape-25" data-name="Shape" class="cls-1" d="M12.24 9.73l.47-.34.47.34-.18-.55.46-.34-.57.01-.18-.55-.18.55-.57-.01.46.34-.18.55z"/><path id="Shape-26" data-name="Shape" class="cls-1" d="M15.26 9.73l.47-.34.46.34-.18-.55.47-.34-.58.01-.17-.55-.18.55-.58-.01.47.34-.18.55z"/><path id="Shape-27" data-name="Shape" class="cls-1" d="M1.59 10.61l-.18.55.47-.34.47.34-.18-.55.46-.34h-.57l-.18-.55-.18.55h-.57l.46.34z"/><path id="Shape-28" data-name="Shape" class="cls-1" d="M5.07 10.27l-.17-.55-.18.55h-.58l.47.34-.18.55.47-.34.46.34-.18-.55.47-.34h-.58z"/><path id="Shape-29" data-name="Shape" class="cls-1" d="M7.53 11.16l.47-.34.46.34-.18-.55.47-.34h-.57L8 9.72l-.18.55h-.58l.47.34-.18.55z"/><path id="Shape-30" data-name="Shape" class="cls-1" d="M10.68 11.16l.46-.34.47.34-.18-.55.47-.34h-.58l-.18-.55-.17.55h-.58l.47.34-.18.55z"/><path id="Shape-31" data-name="Shape" class="cls-1" d="M14.34 10.27l-.18-.55-.17.55h-.58l.47.34-.18.55.46-.34.47.34-.18-.55.47-.34h-.58z"/><path id="Shape-32" data-name="Shape" class="cls-1" d="M2.98 12.36l.46-.34.47.34-.18-.55.47-.34h-.58l-.18-.55-.17.55h-.58l.47.34-.18.55z"/><path id="Shape-33" data-name="Shape" class="cls-1" d="M5.99 12.36l.47-.34.47.34-.18-.55.46-.34h-.57l-.18-.55-.18.55h-.57l.46.34-.18.55z"/><path id="Shape-34" data-name="Shape" class="cls-1" d="M9.1 12.36l.46-.34.47.34-.18-.55.47-.34h-.58l-.18-.55-.18.55h-.57l.47.34-.18.55z"/><path id="Shape-35" data-name="Shape" class="cls-1" d="M12.24 12.36l.47-.34.47.34-.18-.55.46-.34h-.57l-.18-.55-.18.55h-.57l.46.34-.18.55z"/><path id="Shape-36" data-name="Shape" class="cls-1" d="M15.26 12.36l.47-.34.46.34-.18-.55.47-.34h-.58l-.17-.55-.18.55h-.58l.47.34-.18.55z"/></g></g></g></symbol><symbol viewBox="0 0 25 25" id="icon--residential" xmlns="http://www.w3.org/2000/svg"><defs><style>.cls-1{fill:#c08f73}.cls-2{isolation:isolate}.cls-3{fill:#fff}</style></defs><circle id="Oval-3-Copy" class="cls-1" cx="12.5" cy="12.5" r="12.5"/><g class="cls-2"><path class="cls-3" d="M8.73 6.84h3.93a7.31 7.31 0 011.56.16 4.07 4.07 0 011.33.56 2.91 2.91 0 01.94 1 3.13 3.13 0 01.35 1.52 2.85 2.85 0 01-.7 2 3.45 3.45 0 01-1.89 1.05l3 5h-2.41l-2.62-4.8h-1.48v4.8h-2zm3.66 4.88a6.38 6.38 0 00.87-.07 2.39 2.39 0 00.77-.24 1.52 1.52 0 00.57-.5 1.46 1.46 0 00.22-.84 1.36 1.36 0 00-.2-.76 1.49 1.49 0 00-.53-.47 2.16 2.16 0 00-.73-.24 4.37 4.37 0 00-.79-.07h-1.83v3.19z"/></g></symbol><symbol viewBox="0 0 20 20" id="icon--social-facebook" xmlns="http://www.w3.org/2000/svg"><path d="M2.22 0h15.56A2.21 2.21 0 0120 2.22v15.56A2.21 2.21 0 0117.78 20H2.22A2.21 2.21 0 010 17.78V2.22A2.21 2.21 0 012.22 0zm14.45 2.22h-2.78A3.89 3.89 0 0010 6.11v2.78H7.78v3.33H10V20h3.33v-7.78h3.34V8.89h-3.34V6.67a1.11 1.11 0 011.11-1.11h2.23z"/></symbol><symbol viewBox="0 0 20 20" id="icon--social-instagram" xmlns="http://www.w3.org/2000/svg"><path d="M14 0H6a6 6 0 00-6 6v8a6 6 0 006 6h8a6 6 0 006-6V6a6 6 0 00-6-6zm4 14a3.91 3.91 0 01-.3 1.51 4 4 0 01-2.14 2.14A3.91 3.91 0 0114 18H6a4 4 0 01-4-4V6a4 4 0 014-4h8a4 4 0 014 4v8z"/><path d="M10 4.83a5.16 5.16 0 103.66 1.51A5.22 5.22 0 0010 4.83zm0 8.33A3.14 3.14 0 016.84 10 3.16 3.16 0 0110 6.84 3.18 3.18 0 0113.16 10 3.16 3.16 0 0110 13.16z"/>d="M15.18,6.11a1.24,1.24,0,1,0-1.24-1.24A1.24,1.24,0,0,0,15.18,6.11Z"/></symbol><symbol viewBox="0 0 16 20" id="icon--social-pinterest" xmlns="http://www.w3.org/2000/svg"><path d="M0 7.17a6.61 6.61 0 01.45-2.44 6.28 6.28 0 011.24-2 8.67 8.67 0 011.83-1.48A8.45 8.45 0 015.75.31 9.47 9.47 0 018.18 0a8 8 0 013.53.8 6.73 6.73 0 012.66 2.33 6.08 6.08 0 011 3.45 10.63 10.63 0 01-.23 2.26 8.84 8.84 0 01-.7 2.16 7.25 7.25 0 01-1.2 1.8A5.23 5.23 0 0111.5 14a5.57 5.57 0 01-2.28.46 3.84 3.84 0 01-1.62-.38A2.44 2.44 0 016.45 13l-.34 1.35c-.14.59-.24 1-.28 1.14s-.13.46-.25.86a5.08 5.08 0 01-.31.85l-.38.8c-.17.32-.35.63-.55.93s-.45.64-.75 1l-.17.07-.11-.12c-.11-1.26-.18-2-.18-2.26a12.91 12.91 0 01.27-2.48c.17-.92.43-2.07.8-3.46s.56-2.2.62-2.44a4.57 4.57 0 01-.38-2 3.16 3.16 0 01.62-1.88 1.9 1.9 0 011.59-.87 1.41 1.41 0 011.14.48 1.89 1.89 0 01.41 1.21 7.65 7.65 0 01-.53 2.29 7.41 7.41 0 00-.53 2.25A1.65 1.65 0 007.68 12a1.84 1.84 0 001.32.47 2.6 2.6 0 001.23-.3 2.71 2.71 0 00.94-.81 6.85 6.85 0 001.13-2.47 12.29 12.29 0 00.24-1.34 10.19 10.19 0 00.08-1.19 4.08 4.08 0 00-1.32-3.24A5 5 0 007.86 2a5.56 5.56 0 00-4 1.55 5.25 5.25 0 00-1.62 4 3.52 3.52 0 00.16 1 3.68 3.68 0 00.32.78c.12.19.23.37.32.54a1.06 1.06 0 01.16.37 2.91 2.91 0 01-.18.88q-.18.54-.45.54h-.2a2.38 2.38 0 01-1.09-.67 3.59 3.59 0 01-.74-1.24 7.37 7.37 0 01-.39-1.29A5.55 5.55 0 010 7.17z"/></symbol><symbol viewBox="0 0 25 20" id="icon--social-twitter" xmlns="http://www.w3.org/2000/svg"><path d="M22.09 5v.66A14.26 14.26 0 017.75 20 14.26 14.26 0 010 17.73a9.87 9.87 0 001.22.07 10.18 10.18 0 006.27-2.16 5.14 5.14 0 01-2.93-1 5.08 5.08 0 01-1.79-2.51 5.89 5.89 0 001 .08 5.33 5.33 0 001.33-.17 5.06 5.06 0 01-4-5V7a5 5 0 002.28.64 5 5 0 01-1.75-1.79A5.06 5.06 0 011 3.47 5 5 0 011.72.92a14.41 14.41 0 004.64 3.75 14.31 14.31 0 005.76 1.53A6.23 6.23 0 0112 5.05a5 5 0 011.48-3.57A5 5 0 0117.05 0a5 5 0 013.68 1.59A9.78 9.78 0 0023.94.37a5.09 5.09 0 01-2.22 2.79 10.07 10.07 0 002.9-.79A10.63 10.63 0 0122.09 5z"/></symbol><symbol viewBox="0 0 11 11" id="icon--star" xmlns="http://www.w3.org/2000/svg"><path d="M5.41.123l1.234 3.8h3.996l-3.233 2.35 1.235 3.8-3.233-2.35-3.232 2.35 1.234-3.8L.18 3.922h3.996l1.234-3.8z"/></symbol><symbol viewBox="0 0 12 12" id="icon--star-hollow" xmlns="http://www.w3.org/2000/svg"><path d="M9.12 10.5a.46.46 0 01-.27-.09L6 8.45l-2.85 2a.45.45 0 01-.54 0 .43.43 0 01-.15-.51l1.08-3.2-2.83-2a.45.45 0 01-.19-.51A.47.47 0 011 4h3.49L5.58.78a.47.47 0 01.61-.24.45.45 0 01.25.24L7.53 4H11a.46.46 0 01.44.32.46.46 0 01-.17.51l-2.83 2L9.55 9.9a.46.46 0 01-.16.51.42.42 0 01-.27.09zM6 7.44a.42.42 0 01.26.08l2 1.35-.76-2.16a.44.44 0 01.17-.52l1.91-1.32H7.2a.45.45 0 01-.43-.3L6 2.34l-.75 2.23a.44.44 0 01-.43.31H2.44l1.9 1.31a.46.46 0 01.18.52l-.75 2.16 2-1.35A.43.43 0 016 7.44z"/></symbol></svg>