<svg width="625" height="159" viewBox="0 0 625 159" fill="none" xmlns="http://www.w3.org/2000/svg">
<path d="M8.55273 93.2065H27.9606V62.0644H50.0001L70.7238 93.2065H93.5308L70.0659 60.8582C73.1361 60.3099 78.5089 59.2133 82.6755 56.0333C88.158 51.8665 90.1317 44.8485 90.1317 38.9271C90.1317 34.4313 89.0352 28.6195 85.0878 24.014C78.6185 16.5575 70.6141 15.7899 61.8422 15.7899H8.55273V93.2065ZM27.9606 29.3871H58.0045C65.6799 29.3871 67.544 31.2513 68.9694 33.1154C70.2852 34.9796 70.5045 37.6113 70.5045 39.1465C70.5045 47.8092 63.0483 48.3575 58.8817 48.3575H27.9606V29.3871Z" fill="black"/>
<path d="M140.899 13.3775C115.461 14.474 96.3817 27.9616 96.3817 54.6078C96.3817 78.732 112.939 95.7285 144.189 95.7285C175.439 95.7285 191.447 78.403 191.447 53.7306C191.447 40.7913 186.294 32.2382 183.114 28.4002C173.465 16.6671 156.14 12.7196 140.899 13.3775ZM143.092 27.3037C158.553 26.7554 171.601 37.392 171.601 54.7175C171.601 69.6306 161.952 81.912 143.86 81.912C128.838 81.912 123.136 73.9071 121.272 71.2754C119.847 69.4113 116.338 64.4768 116.338 55.0465C116.338 36.2954 130.154 27.7423 143.092 27.3037Z" fill="black"/>
<path d="M196.874 73.7975C206.852 93.4258 226.479 95.6189 239.199 95.6189C248.958 95.6189 278.563 94.7416 278.563 69.8499C278.563 52.8533 263.322 49.5637 254.33 47.9189C250.712 47.1513 234.922 44.5196 231.743 43.8616C225.931 42.5458 221.436 41.2299 221.436 36.1858C221.436 28.8389 230.208 27.194 238.76 27.194C242.488 27.194 249.177 27.6327 254.33 30.1547C258.936 32.4575 260.471 35.3085 261.129 36.5147L279.55 31.9092C278.015 29.3871 274.615 23.6851 266.721 19.4085C258.716 15.0223 250.054 13.3775 238.76 13.3775C226.48 13.3775 212.225 16.1189 205.756 26.5361C203.782 29.7161 202.686 33.6637 202.686 37.5016C202.686 55.0465 220.668 58.4458 227.795 59.7616C231.414 60.4196 247.313 62.832 250.493 63.4899C254.659 64.2575 260.032 65.5733 260.032 71.1658C260.032 80.5961 245.229 81.3637 240.515 81.3637C229.988 81.3637 218.914 78.5127 214.528 69.192L196.874 73.7975Z" fill="black"/>
<path d="M301.809 93.2065H321.108L336.787 45.9451C338.213 41.1202 338.542 40.1333 339.748 34.9796C340.735 40.1333 340.954 41.1202 342.599 46.274L358.279 93.2065H377.248L397.533 15.7899H379.002L369.134 59.5423C368.147 65.0251 367.928 66.5602 367.489 71.8237C366.502 65.683 366.173 64.2575 364.419 58.8844L349.836 15.7899H329.66L314.419 61.7354C312.993 66.5602 312.774 67.5471 312.007 72.5913C311.458 67.8761 311.239 66.5602 310.362 62.2837L300.274 15.7899H281.524L301.809 93.2065Z" fill="black"/>
<path d="M401.976 93.2065H476.318V79.3899H421.384V60.8582H472.371V47.1513H421.384V29.7161H474.125V15.7899H401.976V93.2065Z" fill="black"/>
<path d="M489.146 93.2065H551.536V78.9513H508.554V15.7899H489.146V93.2065Z" fill="black"/>
<path d="M557.895 93.2065H620.285V78.9513H577.303V15.7899H557.895V93.2065Z" fill="black"/>
<path d="M1.1792 144.032V146.225H12.1441V150.776H14.6935V146.225H17.9281V144.06H14.6935V131.888H12.5553L1.1792 144.032ZM12.1441 144.06H4.13973L10.8009 136.932C10.938 136.795 12.2263 135.315 12.2263 135.26C12.1989 135.698 12.1715 136.11 12.1715 136.521C12.1441 136.959 12.1441 137.371 12.1441 137.782V144.06Z" fill="black"/>
<path d="M29.3044 131.532C23.4656 131.586 20.8066 136.493 20.8066 141.236C20.8066 146.664 23.6575 151.215 29.3318 151.215C34.5402 151.215 37.9393 147.377 37.9393 141.455C37.9393 135.918 34.9513 131.477 29.3044 131.532ZM29.3044 133.752C31.7989 133.67 33.334 135.287 33.9919 136.384C34.7595 137.645 35.1981 139.427 35.1981 141.428C35.1981 143.676 34.7046 145.979 33.0873 147.541C32.073 148.473 30.7573 148.994 29.3866 148.994C26.0424 148.994 23.5752 146.143 23.5752 141.565C23.5752 139.783 23.8494 137.343 25.4667 135.561C26.5358 134.355 27.9612 133.779 29.3044 133.752Z" fill="black"/>
<path d="M43.6961 130.079C41.2564 130.079 39.2553 132.052 39.2553 134.52C39.2553 136.959 41.229 138.933 43.6961 138.933C46.1358 138.933 48.1094 136.959 48.1094 134.52C48.1094 132.052 46.1358 130.079 43.6961 130.079ZM43.6961 132.272C44.9022 132.272 45.8616 133.259 45.8616 134.465C45.8616 135.644 44.9022 136.631 43.6961 136.631C42.4899 136.631 41.5305 135.644 41.5305 134.465C41.5305 133.259 42.4899 132.272 43.6961 132.272Z" fill="black"/>
<path d="M59.9657 144.032V146.225H70.9306V150.776H73.4799V146.225H76.7146V144.06H73.4799V131.888H71.3418L59.9657 144.032ZM70.9306 144.06H62.9262L69.5874 136.932C69.7245 136.795 71.0128 135.315 71.0128 135.26C70.9854 135.698 70.958 136.11 70.958 136.521C70.9306 136.959 70.9306 137.371 70.9306 137.782V144.06Z" fill="black"/>
<path d="M83.4856 148.747C83.4856 148.83 90.5032 145.814 93.1348 143.182C94.4506 141.867 95.2729 140.139 95.2729 138.275C95.2729 135.178 92.7784 131.641 87.7071 131.641C84.4725 131.641 82.1698 133.231 81.0459 135.013C80.1139 136.466 80.0317 137.837 79.9769 138.933L82.6359 139.317C82.6907 138.001 82.7455 136.439 84.0065 135.205C84.8014 134.437 86.0624 133.917 87.5975 133.917C90.3661 133.917 92.5317 135.589 92.5317 138.358C92.5317 140.551 91.024 141.867 89.626 142.881C86.6106 145.129 82.6633 147.048 80.251 148.199V150.776H95.7389V148.528H86.2269C85.0481 148.556 84.7466 148.583 83.4856 148.747Z" fill="black"/>
<path d="M101.879 131.833C101.907 131.559 101.907 131.285 101.77 130.983C101.551 130.517 101.057 130.243 100.536 130.243C99.7962 130.243 99.0286 130.709 99.0286 131.669C99.0286 131.806 99.0286 131.915 99.056 132.162L100.125 138.878H100.756L101.879 131.833Z" fill="black"/>
<path d="M114.763 144.032V146.225H125.728V150.776H128.278V146.225H131.512V144.06H128.278V131.888H126.14L114.763 144.032ZM125.728 144.06H117.724L124.385 136.932C124.522 136.795 125.811 135.315 125.811 135.26C125.783 135.698 125.756 136.11 125.756 136.521C125.728 136.959 125.728 137.371 125.728 137.782V144.06Z" fill="black"/>
<path d="M135.076 142.196L137.187 142.607C138.42 140.222 141.079 139.482 142.916 139.482C145.109 139.482 148.261 140.551 148.261 144.114C148.261 146.39 146.644 148.967 142.724 148.967C140.367 148.967 138.832 147.98 138.092 147.24C137.434 146.582 137.077 145.814 136.858 145.321L134.281 145.869C134.638 146.856 135.213 148.418 137.132 149.679C138.722 150.694 140.641 151.132 142.532 151.132C147.302 151.132 151.003 148.199 151.003 143.895C151.003 139.893 147.713 137.288 143.245 137.288C139.873 137.288 138.119 138.659 137.351 139.262L137.68 134.218H149.961L150.098 131.888H135.624L135.076 142.196Z" fill="black"/>
<path d="M154.292 147.788V150.776H157.308V147.788H154.292Z" fill="black"/>
<path d="M160.268 146.637C160.679 147.432 161.31 148.665 162.872 149.734C164.572 150.858 166.463 151.215 168.081 151.215C171.973 151.215 177.209 149.104 177.209 140.934C177.209 138.412 176.77 135.836 175.044 133.999C173.536 132.354 171.151 131.532 168.519 131.532C164.216 131.532 160.241 133.752 160.241 138.166C160.241 142.223 163.777 144.526 168.026 144.526C169.424 144.526 170.932 144.306 172.604 143.402C173.7 142.826 174.221 142.305 174.742 141.784C174.687 142.826 174.577 145.019 173.015 146.828C171.754 148.336 169.972 148.994 168.026 148.994C164.654 148.994 163.421 147.048 162.708 145.65L160.268 146.637ZM168.629 133.697C171.727 133.67 174.221 135.232 174.221 138.001C174.221 140.907 171.233 142.387 168.41 142.387C164.627 142.387 162.955 140.194 162.955 138.083C162.955 135.507 165.12 133.725 168.629 133.697Z" fill="black"/>
<path d="M180.265 146.637C180.677 147.432 181.307 148.665 182.869 149.734C184.569 150.858 186.461 151.215 188.078 151.215C191.97 151.215 197.206 149.104 197.206 140.934C197.206 138.412 196.768 135.836 195.041 133.999C193.533 132.354 191.148 131.532 188.516 131.532C184.213 131.532 180.238 133.752 180.238 138.166C180.238 142.223 183.774 144.526 188.023 144.526C189.421 144.526 190.929 144.306 192.601 143.402C193.697 142.826 194.218 142.305 194.739 141.784C194.684 142.826 194.575 145.019 193.012 146.828C191.751 148.336 189.969 148.994 188.023 148.994C184.651 148.994 183.418 147.048 182.705 145.65L180.265 146.637ZM188.626 133.697C191.724 133.67 194.218 135.232 194.218 138.001C194.218 140.907 191.23 142.387 188.407 142.387C184.624 142.387 182.952 140.194 182.952 138.083C182.952 135.507 185.117 133.725 188.626 133.697Z" fill="black"/>
<path d="M203.237 137.371C203.319 136.74 203.429 135.781 204.443 134.931C205.54 133.999 207.02 133.697 208.281 133.697C209.761 133.697 210.885 134.054 211.625 134.629C212.338 135.178 212.859 136.082 212.859 137.097C212.859 138.33 212.091 139.427 210.172 139.756C208.994 139.948 207.459 139.948 206.143 139.92V141.976C206.773 141.949 207.376 141.949 207.979 141.949C210.255 141.949 211.817 142.113 212.722 142.991C213.133 143.402 213.599 144.169 213.599 145.293C213.599 147.925 211.296 148.939 208.5 148.939C203.347 148.939 202.798 146.308 202.552 145.074L199.975 145.677C200.331 146.993 200.934 149.296 203.868 150.447C205.32 151.023 207.486 151.16 208.473 151.16C213.489 151.16 216.422 148.83 216.422 145.43C216.422 144.772 216.34 143.374 215.189 142.141C214.312 141.181 213.38 140.88 212.804 140.66C213.489 140.414 214.394 140.085 215.052 139.07C215.463 138.44 215.682 137.645 215.682 136.877C215.682 133.889 213.078 131.559 208.199 131.559C206.417 131.559 204.471 131.915 203.018 132.984C201.318 134.246 200.962 135.836 200.688 136.905L203.237 137.371Z" fill="black"/>
<path d="M236.543 135.369C236.105 134.794 235.474 133.944 234.268 133.122C232.76 132.107 230.978 131.559 229.142 131.559C224.701 131.559 219.849 134.246 219.849 141.51C219.849 148.035 223.577 151.215 228.731 151.215C232.431 151.215 234.076 149.707 234.679 149.131C235.145 148.693 236.68 147.294 236.68 144.471C236.68 140.085 232.733 138.166 228.977 138.166C227.196 138.166 225.414 138.577 223.961 139.619C222.892 140.414 222.59 141.044 222.289 141.729C222.316 140.468 222.371 137.837 224.125 135.808C225.386 134.41 227.223 133.779 228.95 133.779C232.075 133.779 233.391 135.534 233.994 136.356L236.543 135.369ZM228.292 140.359C230.951 140.277 234.076 141.538 234.076 144.635C234.076 147.075 232.322 148.967 228.84 148.967C225.578 148.967 223.111 147.377 223.111 144.663C223.111 142.113 225.359 140.441 228.292 140.359Z" fill="black"/>
<path d="M241.752 131.833C241.779 131.559 241.779 131.285 241.642 130.983C241.423 130.517 240.929 130.243 240.409 130.243C239.668 130.243 238.901 130.709 238.901 131.669C238.901 131.806 238.901 131.915 238.928 132.162L239.997 138.878H240.628L241.752 131.833Z" fill="black"/>
<path d="M247.454 131.833C247.481 131.559 247.481 131.285 247.344 130.983C247.125 130.517 246.631 130.243 246.11 130.243C245.37 130.243 244.603 130.709 244.603 131.669C244.603 131.806 244.603 131.915 244.63 132.162L245.699 138.878H246.33L247.454 131.833Z" fill="black"/>
<path d="M261.489 131.422V150.776H264.121V137.837C264.121 136.219 264.093 135.836 263.983 134.492C264.559 135.205 264.778 135.479 265.491 136.274L279.197 150.776H281.884V131.422H279.252V144.772C279.28 146.006 279.28 146.253 279.417 147.623C278.485 146.472 278.293 146.253 277.361 145.266L264.312 131.422H261.489Z" fill="black"/>
<path d="M353.07 134.246H364.857C363.432 135.753 362.335 137.097 361.156 139.098C358.278 144.005 357.702 147.898 357.291 150.776H360.279C360.608 148.035 360.965 145.019 362.746 141.099C364.747 136.768 367.187 134.52 368.064 133.67V131.915H353.07V134.246Z" fill="black"/>
<path d="M368.064 144.032V146.225H379.029V150.776H381.578V146.225H384.813V144.06H381.578V131.888H379.44L368.064 144.032ZM379.029 144.06H371.024L377.686 136.932C377.823 136.795 379.111 135.315 379.111 135.26C379.084 135.698 379.056 136.11 379.056 136.521C379.029 136.959 379.029 137.371 379.029 137.782V144.06Z" fill="black"/>
<path d="M391.173 130.079C388.733 130.079 386.732 132.052 386.732 134.52C386.732 136.959 388.706 138.933 391.173 138.933C393.612 138.933 395.586 136.959 395.586 134.52C395.586 132.052 393.612 130.079 391.173 130.079ZM391.173 132.272C392.379 132.272 393.338 133.259 393.338 134.465C393.338 135.644 392.379 136.631 391.173 136.631C389.967 136.631 389.007 135.644 389.007 134.465C389.007 133.259 389.967 132.272 391.173 132.272Z" fill="black"/>
<path d="M416.159 131.532C410.321 131.586 407.662 136.493 407.662 141.236C407.662 146.664 410.512 151.215 416.187 151.215C421.395 151.215 424.794 147.377 424.794 141.455C424.794 135.918 421.806 131.477 416.159 131.532ZM416.159 133.752C418.654 133.67 420.189 135.287 420.847 136.384C421.614 137.645 422.053 139.427 422.053 141.428C422.053 143.676 421.56 145.979 419.942 147.541C418.928 148.473 417.612 148.994 416.242 148.994C412.897 148.994 410.43 146.143 410.43 141.565C410.43 139.783 410.704 137.343 412.322 135.561C413.391 134.355 414.816 133.779 416.159 133.752Z" fill="black"/>
<path d="M429.948 131.833C429.975 131.559 429.975 131.285 429.838 130.983C429.619 130.517 429.126 130.243 428.605 130.243C427.865 130.243 427.097 130.709 427.097 131.669C427.097 131.806 427.097 131.915 427.125 132.162L428.194 138.878H428.824L429.948 131.833Z" fill="black"/>
<path d="M446.944 148.747C446.944 148.83 453.961 145.814 456.593 143.182C457.909 141.867 458.731 140.139 458.731 138.275C458.731 135.178 456.237 131.641 451.165 131.641C447.931 131.641 445.628 133.231 444.504 135.013C443.572 136.466 443.49 137.837 443.435 138.933L446.094 139.317C446.149 138.001 446.204 136.439 447.465 135.205C448.26 134.437 449.521 133.917 451.056 133.917C453.824 133.917 455.99 135.589 455.99 138.358C455.99 140.551 454.482 141.867 453.084 142.881C450.069 145.129 446.121 147.048 443.709 148.199V150.776H459.197V148.528H449.685C448.506 148.556 448.205 148.583 446.944 148.747Z" fill="black"/>
<path d="M464.872 136.959C467.476 136.877 468.49 136.795 470.107 136.082V150.776H472.821V131.943H470.765C470.354 132.683 469.888 133.588 468.49 134.3C467.092 135.041 465.941 135.068 464.872 135.095V136.959Z" fill="black"/>
<path d="M482.361 147.788V150.776H485.376V147.788H482.361Z" fill="black"/>
<path d="M489.406 142.196L491.517 142.607C492.75 140.222 495.409 139.482 497.246 139.482C499.439 139.482 502.591 140.551 502.591 144.114C502.591 146.39 500.974 148.967 497.054 148.967C494.696 148.967 493.161 147.98 492.421 147.24C491.763 146.582 491.407 145.814 491.188 145.321L488.611 145.869C488.967 146.856 489.543 148.418 491.462 149.679C493.052 150.694 494.971 151.132 496.862 151.132C501.632 151.132 505.332 148.199 505.332 143.895C505.332 139.893 502.043 137.288 497.575 137.288C494.203 137.288 492.449 138.659 491.681 139.262L492.01 134.218H504.291L504.428 131.888H489.954L489.406 142.196Z" fill="black"/>
<path d="M517.215 131.532C511.377 131.586 508.718 136.493 508.718 141.236C508.718 146.664 511.568 151.215 517.243 151.215C522.451 151.215 525.85 147.377 525.85 141.455C525.85 135.918 522.862 131.477 517.215 131.532ZM517.215 133.752C519.71 133.67 521.245 135.287 521.903 136.384C522.67 137.645 523.109 139.427 523.109 141.428C523.109 143.676 522.616 145.979 520.998 147.541C519.984 148.473 518.668 148.994 517.298 148.994C513.953 148.994 511.486 146.143 511.486 141.565C511.486 139.783 511.76 137.343 513.378 135.561C514.447 134.355 515.872 133.779 517.215 133.752Z" fill="black"/>
<path d="M545.792 135.369C545.354 134.794 544.723 133.944 543.517 133.122C542.01 132.107 540.228 131.559 538.391 131.559C533.95 131.559 529.098 134.246 529.098 141.51C529.098 148.035 532.826 151.215 537.98 151.215C541.681 151.215 543.325 149.707 543.928 149.131C544.394 148.693 545.93 147.294 545.93 144.471C545.93 140.085 541.982 138.166 538.227 138.166C536.445 138.166 534.663 138.577 533.21 139.619C532.141 140.414 531.84 141.044 531.538 141.729C531.566 140.468 531.62 137.837 533.375 135.808C534.636 134.41 536.472 133.779 538.199 133.779C541.324 133.779 542.64 135.534 543.243 136.356L545.792 135.369ZM537.541 140.359C540.2 140.277 543.325 141.538 543.325 144.635C543.325 147.075 541.571 148.967 538.09 148.967C534.828 148.967 532.36 147.377 532.36 144.663C532.36 142.113 534.608 140.441 537.541 140.359Z" fill="black"/>
<path d="M548.492 144.032V146.225H559.457V150.776H562.007V146.225H565.241V144.06H562.007V131.888H559.868L548.492 144.032ZM559.457 144.06H551.453L558.114 136.932C558.251 136.795 559.54 135.315 559.54 135.26C559.512 135.698 559.485 136.11 559.485 136.521C559.457 136.959 559.457 137.371 559.457 137.782V144.06Z" fill="black"/>
<path d="M570.998 131.833C571.025 131.559 571.025 131.285 570.888 130.983C570.669 130.517 570.176 130.243 569.655 130.243C568.915 130.243 568.147 130.709 568.147 131.669C568.147 131.806 568.147 131.915 568.175 132.162L569.244 138.878H569.874L570.998 131.833Z" fill="black"/>
<path d="M576.7 131.833C576.727 131.559 576.727 131.285 576.59 130.983C576.371 130.517 575.878 130.243 575.357 130.243C574.617 130.243 573.849 130.709 573.849 131.669C573.849 131.806 573.849 131.915 573.877 132.162L574.946 138.878H575.576L576.7 131.833Z" fill="black"/>
<path d="M594.628 150.776H597.753L602.687 137.206C603.126 135.945 603.235 135.616 603.482 134.218C603.784 135.753 603.893 136.11 604.441 137.617L609.184 150.776H612.227L618.614 131.422H615.708L611.267 145.567C610.883 146.719 610.829 146.966 610.664 148.172C610.472 147.24 610.417 146.993 610.061 146.006L604.716 131.422H602.276L597.177 145.184C596.711 146.527 596.602 146.856 596.3 148.281C596.19 147.185 596.108 146.911 595.807 145.896L591.256 131.422H588.323L594.628 150.776Z" fill="black"/>
</svg>
